External Loads File
version=1
nRows=46
nColumns=13
Range=5.000000e-03-10 seconds
endheader
time 	forceRightX 	forceRightY 	forceRightZ 	pointRightX 	pointRightY 	pointRightZ 	forceLeftX 	forceLeftY 	forceLeftZ 	pointLeftX 	pointLeftY 	pointLeftZ 		
2.505000 245.647004 1029.027342 -0.000000 0.328702 0.165161 -0.146343 -90.520200 -76.753628 -0.000000 0.229985 0.484432 -0.377120
2.510000 245.067347 1006.504029 -0.000000 0.324196 0.163104 -0.146299 -90.752052 -73.924005 -0.000000 0.234893 0.487199 -0.377235
2.515000 244.224609 983.980237 -0.000000 0.319589 0.161317 -0.146249 -91.310564 -70.885065 -0.000000 0.239897 0.489761 -0.377286
2.520000 242.865062 961.691116 -0.000000 0.314985 0.159590 -0.146193 -92.087737 -67.653370 -0.000000 0.244909 0.492029 -0.377342
2.525000 241.551472 939.506717 -0.000000 0.310302 0.157979 -0.146115 -92.980022 -64.076212 -0.000000 0.249984 0.494119 -0.377443
2.530000 240.210020 917.249622 -0.000000 0.305600 0.156478 -0.146085 -93.815523 -59.989967 -0.000000 0.255137 0.495989 -0.377513
2.535000 238.394360 894.645886 -0.000000 0.300903 0.155328 -0.146019 -94.428735 -55.210060 -0.000000 0.260236 0.497664 -0.377607
2.540000 236.938918 870.966681 -0.000000 0.296133 0.154198 -0.145914 -94.786616 -49.367689 -0.000000 0.265512 0.499121 -0.377552
2.545000 235.931699 845.663168 -0.000000 0.291363 0.153446 -0.145838 -94.837856 -42.124875 -0.000000 0.271174 0.500366 -0.377065
2.550000 233.261282 818.867379 -0.000000 0.286549 0.152728 -0.145766 -94.439938 -33.351613 -0.000000 0.276309 0.501325 -0.377235
2.555000 229.943088 789.943542 -0.000000 0.281725 0.152288 -0.145721 -93.602511 -22.523619 -0.000000 0.281422 0.502066 -0.377379
2.560000 225.319519 758.857974 -0.000000 0.276939 0.151963 -0.145702 -92.220532 -9.251451 -0.000000 0.286284 0.502589 -0.377894
2.565000 220.458007 725.244567 -0.000000 0.272043 0.152015 -0.145642 -90.166583 7.046451 -0.000000 0.291255 0.502899 -0.378086
2.570000 215.807346 689.085138 -0.000000 0.267181 0.152192 -0.145561 -87.206692 26.668040 -0.000000 0.296757 0.502987 -0.377856
2.575000 208.585012 651.528429 -0.000000 0.262257 0.152494 -0.145522 -83.314657 49.088475 -0.000000 0.301204 0.502919 -0.378402
2.580000 201.425821 612.106827 -0.000000 0.257261 0.153121 -0.145415 -78.398197 74.082928 -0.000000 0.305860 0.502608 -0.379089
2.585000 193.571398 571.408291 -0.000000 0.252278 0.154037 -0.145357 -72.633551 100.860131 -0.000000 0.310338 0.502051 -0.379316
2.590000 185.465447 529.570997 -0.000000 0.247292 0.155137 -0.145301 -66.169874 128.920038 -0.000000 0.314825 0.501246 -0.379623
2.595000 176.938663 486.854761 -0.000000 0.242394 0.156377 -0.145171 -59.289461 157.914953 -0.000000 0.319240 0.500169 -0.379844
2.600000 168.402411 443.250124 -0.000000 0.237378 0.157858 -0.145192 -52.150506 187.661120 -0.000000 0.323562 0.498848 -0.380044
2.605000 160.233143 398.728539 -0.000000 0.232372 0.159663 -0.145117 -44.842448 217.934044 -0.000000 0.328131 0.497337 -0.380460
2.610000 151.869422 353.687318 -0.000000 0.227291 0.161720 -0.145127 -37.944227 248.437077 -0.000000 0.332276 0.495629 -0.380836
2.615000 143.824901 308.231867 -0.000000 0.222157 0.164050 -0.145172 -31.479013 279.146674 -0.000000 0.336375 0.493694 -0.381090
2.620000 136.166810 262.817288 -0.000000 0.217007 0.166609 -0.145160 -25.591799 310.147924 -0.000000 0.340519 0.491563 -0.381335
2.625000 128.912039 218.102048 -0.000000 0.211819 0.169419 -0.145256 -20.393774 341.558027 -0.000000 0.344620 0.489187 -0.381600
2.630000 122.142538 174.827371 -0.000000 0.206601 0.172441 -0.145317 -15.843013 373.333127 -0.000000 0.348655 0.486536 -0.381904
2.635000 116.010678 133.687853 -0.000000 0.201343 0.175707 -0.145341 -11.653299 405.152763 -0.000000 0.352653 0.483569 -0.382141
2.640000 110.566903 95.336931 -0.000000 0.196099 0.179221 -0.145385 -7.616518 436.478243 -0.000000 0.356599 0.480398 -0.382356
2.645000 105.834577 60.262197 -0.000000 0.190878 0.182937 -0.145410 -3.393187 466.695935 -0.000000 0.360435 0.476956 -0.382522
2.650000 101.753500 28.804830 -0.000000 0.185685 0.186601 -0.145392 1.387460 495.177627 -0.000000 0.364234 0.473215 -0.382654
2.655000 98.213799 1.166283 -0.000000 0.180718 0.190577 -0.145257 7.090273 521.306952 -0.000000 0.367905 0.469237 -0.382691
2.660000 95.045881 -22.739145 -0.000000 0.175900 0.194729 -0.145172 14.931860 544.473996 -0.000000 0.372016 0.465063 -0.382999
2.665000 92.080030 -42.779610 -0.000000 0.171326 0.198922 -0.145075 24.279381 564.124645 -0.000000 0.375846 0.460634 -0.383056
2.670000 89.115644 -59.225770 -0.000000 0.166957 0.203422 -0.145029 36.093119 579.749714 -0.000000 0.379649 0.456018 -0.383134
2.675000 86.036928 -72.285714 -0.000000 0.162859 0.207931 -0.144929 50.101513 591.103253 -0.000000 0.383455 0.451271 -0.383213
2.680000 82.710360 -82.412088 -0.000000 0.159046 0.212687 -0.144935 66.337294 598.233179 -0.000000 0.387168 0.446366 -0.383225
2.685000 79.038306 -90.178055 -0.000000 0.155447 0.217531 -0.144948 84.447450 601.475727 -0.000000 0.390838 0.441295 -0.383267
2.690000 74.971189 -96.228861 -0.000000 0.152139 0.222459 -0.145104 103.847677 601.362375 -0.000000 0.394462 0.436090 -0.383278
2.695000 70.425828 -101.271703 -0.000000 0.149069 0.227636 -0.145153 124.348878 598.422728 -0.000000 0.397984 0.430752 -0.383367
2.700000 65.554881 -105.794038 -0.000000 0.146458 0.232453 -0.144951 144.572764 593.437162 -0.000000 0.401492 0.425289 -0.383320
2.705000 60.019608 -110.465016 -0.000000 0.143686 0.237900 -0.145146 166.161368 586.447167 -0.000000 0.404799 0.419679 -0.383298
2.710000 53.905534 -115.482065 -0.000000 0.141284 0.243904 -0.145277 188.422298 577.883817 -0.000000 0.408088 0.413959 -0.383299
2.715000 47.351126 -120.876639 -0.000000 0.138810 0.249793 -0.145375 210.637471 568.188623 -0.000000 0.411132 0.408011 -0.383253
2.720000 40.494638 -126.581904 -0.000000 0.136836 0.255686 -0.145712 232.351722 557.715211 -0.000000 0.414069 0.401931 -0.383144
2.725000 33.373231 -132.496625 -0.000000 0.135082 0.261607 -0.145859 253.770227 546.504444 -0.000000 0.416801 0.395707 -0.383119
2.730000 26.039246 -138.444089 -0.000000 0.133487 0.267690 -0.145907 275.047912 534.526218 -0.000000 0.419286 0.389368 -0.383095
